# xmcd
#
# Track frame offsets: 
#        150
#        30242
#        53100
#        75615
#        99342
#        122077
#        143345
#        162845
#        182332
#        202895
#        221787
#        242775
#        262095
#
# Disc length: 3775 seconds
#
# Revision: 9
# Processed by: cddbd v1.5.2PL0 Copyright (c) Steve Scherf et al.
# Submitted via: ExactAudioCopy v0.99pb4
#
DISCID=a40ebd0d
DTITLE=Acoustic Alchemy - The Beautiful Game
DYEAR=2000
DGENRE=Jazz
TTITLE0=Angel Of The South
TTITLE1=The Panama Cat
TTITLE2=Trail Blazer
TTITLE3=The Beautiful Game
TTITLE4=Hats Of Magic
TTITLE5=Tete a Tete
TTITLE6=The Last Flamenco
TTITLE7=Kidstuff
TTITLE8=Big Sky Country
TTITLE9=Hold On To Your Heart
TTITLE10=Jubilation
TTITLE11=Big Sky Country (Nashville Version)
TTITLE12=Trail Blazer (Nashville Version)
EXTD=YEAR: 2000
EXTT0=
EXTT1=
EXTT2=
EXTT3=
EXTT4=
EXTT5=
EXTT6=
EXTT7=
EXTT8=
EXTT9=
EXTT10=
EXTT11=
EXTT12=
PLAYORDER=
